<?xml version="1.0" encoding="UTF-8"?>
<svg width="113px" height="30px" viewBox="0 0 113 30" version="1.1" xmlns="http://www.w3.org/2000/svg" xmlns:xlink="http://www.w3.org/1999/xlink">
    <title>university-logo</title>
    <g stroke="none" stroke-width="1" fill="none" fill-rule="evenodd">
        <g transform="translate(-400.000000, -18.000000)">
            <g transform="translate(400.000000, 18.000000)">
                <path d="M10.9151065,15.0116744 L7.19553317,15.0116744 L7.19553317,16.576093 L10.9151065,16.576093 C11.1614466,16.576093 11.3618748,16.7758605 11.3618748,17.021907 L11.3618748,18.0663256 L12.9296423,18.0663256 L12.9296423,17.021907 C12.9296423,15.9133023 12.0258512,15.0116744 10.9151065,15.0116744" id="Fill-1" fill="#DC552C"></path>
                <path d="M11.7526863,12.269814 C12.9988366,12.269814 14.1074838,12.8653953 14.8096815,13.786093 C15.5116461,12.8653953 16.6205264,12.269814 17.8664436,12.269814 L17.8664436,12.269814 L29.3661243,12.269814 C29.4043455,12.4735349 29.4372064,12.6791163 29.4672706,12.8856279 L29.4672706,12.8856279 C29.4723979,12.9116744 29.4751945,12.9379535 29.4789234,12.964 C29.4910423,13.0516744 29.501996,13.1393488 29.5127165,13.2272558 L29.5127165,13.2272558 L29.5320602,13.3891163 C29.543713,13.4953953 29.5537344,13.601907 29.5630566,13.7084186 C29.5663194,13.7467907 29.5705144,13.7846977 29.5735441,13.8230698 C29.5740103,13.8267907 29.5744764,13.8305116 29.5747094,13.8342326 L29.5747094,13.8342326 L29.5999744,14.2263686 C29.6133708,14.4879535 29.6196892,14.749814 29.6196892,15.0116744 L29.6196892,15.0116744 C29.6213206,15.048186 29.6201553,15.0844651 29.6199223,15.1209767 L29.6199223,15.1209767 L29.6180578,15.2751628 C29.6161934,15.3733023 29.6133967,15.4714419 29.6099009,15.5693488 C29.6080364,15.6142326 29.6066381,15.6591163 29.6047736,15.704 C29.5987142,15.8321395 29.5910233,15.9605116 29.5817011,16.0886512 L29.5817011,16.0886512 L29.5793705,16.1286512 C29.5684169,16.2735349 29.5551327,16.4179535 29.5399841,16.5616744 C29.5392849,16.5693488 29.5388188,16.5770233 29.5378866,16.5849302 L29.5378866,16.5849302 L29.4996289,16.9061725 C28.5648517,24.1639661 22.3341907,29.7907442 14.8108468,29.7907442 C6.64409944,29.7907442 -9.32223882e-05,23.1609767 -9.32223882e-05,15.0116744 L-9.32223882e-05,15.0116744 L2.11628804,15.0116744 C2.11628804,21.9963256 7.81101068,27.6788837 14.8108468,27.6788837 C21.3562237,27.6788837 26.7596264,22.7095814 27.4331581,16.3533023 C27.4361878,16.3251628 27.4394506,16.2972558 27.4420142,16.2691163 C27.4622901,16.0656279 27.4774387,15.8616744 27.4879263,15.6574884 C27.4981807,15.4537674 27.5037741,15.2488837 27.5042402,15.0428372 C27.5051724,14.6393488 27.4883924,14.236093 27.4511034,13.8342326 L27.4511034,13.8342326 L17.8664436,13.8342326 C16.6135347,13.8342326 15.5941479,14.8514419 15.5941479,16.1016744 L15.5941479,16.1016744 L15.5941479,18.0751628 L14.024982,18.0751628 L14.024982,16.1016744 C14.024982,14.8514419 13.0055952,13.8342326 11.7526863,13.8342326 L11.7526863,13.8342326 L7.19550986,13.8342326 L7.19550986,12.269814 Z M5.48686002,15.0116279 C5.48686002,20.1418605 9.66951552,24.3155814 14.8107302,24.3155814 C19.4175476,24.3155814 23.2522505,20.9634884 24.0001271,16.5760465 L24.0001271,16.5760465 L18.7041633,16.5760465 C18.4578231,16.5760465 18.257395,16.775814 18.257395,17.0218605 L18.257395,17.0218605 L18.257395,18.0662791 L16.6898605,18.0662791 L16.6898605,17.0218605 C16.6898605,15.9132558 17.5931855,15.0116279 18.7041633,15.0116279 L18.7041633,15.0116279 L26.2507486,15.0116279 C26.2507486,21.3065116 21.1188562,26.4274419 14.8107302,26.4274419 C8.50260427,26.4274419 3.37047875,21.3065116 3.37047875,15.0116279 L3.37047875,15.0116279 Z M14.8107302,0.232534884 C19.9710555,0.232534884 24.6778539,2.84718605 27.4018121,7.22648837 L27.4018121,7.22648837 L25.6037853,8.3402093 L24.5382534,9.0002093 L22.7399935,10.1139302 C21.0240024,7.35486047 18.0597635,5.70765116 14.8107302,5.70765116 C10.0694396,5.70765116 6.14617536,9.25811628 5.5642346,13.8341628 L5.5642346,13.8341628 L3.43130636,13.8341628 C4.02373463,8.09067442 8.90089693,3.5957907 14.8107302,3.5957907 C18.1317778,3.5957907 21.2092819,4.99927907 23.3613207,7.42416279 L23.3613207,7.42416279 L24.4375732,6.75090698 C22.0445545,3.96253488 18.5680586,2.34439535 14.8107302,2.34439535 C8.20918681,2.34439535 2.77059268,7.39974419 2.17303717,13.8341628 L2.17303717,13.8341628 L0.0471006116,13.8341628 C0.650249463,6.23346512 7.04111028,0.232534884 14.8107302,0.232534884 Z" id="Fill-4" fill="#EA5529"></path>
                <polygon fill="#4D4948" points="93.3296405 10.9379302 93.3296405 9.32234884 85.7042822 9.32234884 85.7042822 6.48513953 83.1043098 6.48513953 83.1043098 9.32234884 75.4791846 9.32234884 75.4791846 10.9379302 82.8805761 10.9379302 74.9235791 23.3216512 77.642177 23.3216512 85.5989409 10.9379302"></polygon>
                <polygon fill="#4D4948" points="87.1559413 13.0937442 84.4093766 13.0937442 91.0237381 23.3214186 93.7703028 23.3214186"></polygon>
                <path d="M64.5993628,13.8153721 C62.4202895,13.1132791 60.9336254,12.492814 60.4090164,12.2688605 C60.5225147,12.1730465 60.6322841,12.0844419 60.7338965,11.9935116 L67.9889288,11.9935116 L67.377623,12.4088605 C66.7465075,12.8379302 65.8511064,13.3209535 64.5993628,13.8153721 L64.5993628,13.8153721 Z M59.4583811,21.961186 L69.322242,21.961186 L69.322242,18.4783953 L59.4583811,18.4783953 L59.4583811,21.961186 Z M70.8979335,11.554907 L71.3318837,10.8902558 L71.3318837,11.0697907 L73.5550046,11.0697907 L73.5550046,7.62211628 L65.5026877,7.62211628 L65.5026877,6.56746512 L63.2795668,6.56746512 L63.2795668,7.62211628 L55.2260847,7.62211628 L55.2260847,11.0697907 L57.4494387,11.0697907 L57.4494387,9.01467442 L71.3318837,9.01467442 L71.3318837,10.6009535 L61.8921846,10.6009535 C62.0415735,10.3465349 62.1541396,10.1016512 62.2347769,9.88234884 L59.936612,9.88234884 C59.4609448,10.8646744 58.2944996,12.1242093 55.4717257,12.8872326 L56.16833,14.2097907 C57.2238405,13.9342093 58.0989657,13.6053721 58.8284309,13.2460698 C58.9465902,13.3067674 59.0670802,13.3674651 59.1896676,13.421186 C59.6746571,13.6356047 60.7338965,14.0742093 62.2464297,14.6086279 C60.4006264,15.142814 58.0500239,15.6465349 55.0519919,16.0523488 L55.0519919,17.4756047 C55.8131527,17.3751395 56.5412196,17.2700233 57.2331627,17.1604884 L57.2331627,23.3537442 L71.5516555,23.3537442 L71.5516555,17.0858372 L57.6750369,17.0858372 C60.5796134,16.6004884 62.8647272,16.0174651 64.6601904,15.3993256 C67.1016848,16.141186 70.1978333,16.9156047 73.7325932,17.4335116 L73.7325932,16.0056047 C71.1785328,15.6067674 68.8668507,15.0635116 66.8949641,14.5151395 C69.4091719,13.351186 70.4693435,12.2081628 70.8979335,11.554907 L70.8979335,11.554907 Z" id="Fill-13" fill="#4D4948"></path>
                <path d="M54.7717421,23.5404651 L52.2983191,23.5404651 C51.2672795,22.3018605 50.1474455,21.2332558 49.0194546,20.3048837 C48.2142463,21.3827907 47.2477632,22.4813953 46.0906403,23.5404651 L43.3519996,23.5404651 C45.0773129,22.1267442 46.405965,20.5688372 47.4253518,19.0967442 C46.3500316,18.3430233 45.2991822,17.7134884 44.3429535,17.2048837 C44.3210463,19.4209302 43.3016595,22.1013953 41.0692163,23.3537209 L41.0692163,20.8695349 C41.7376209,19.8197674 42.1235615,18.462093 42.1235615,17.1162791 L42.1235615,16.132093 C41.3589049,15.8030233 40.7641461,15.5883721 40.439266,15.4739535 C40.4194563,15.4667442 40.3959176,15.4623256 40.3761079,15.4532558 L40.3761079,13.9204651 C40.6529784,13.9948837 40.951057,14.0860465 41.2563603,14.1746512 C41.9972452,14.4148837 44.9941119,15.4481395 48.346389,17.664186 C49.2839732,16.0713953 49.8426083,14.6946512 50.1290341,13.8713953 L50.2341424,13.5704651 L46.0018459,13.5704651 L48.4482345,8.57837209 L44.349013,8.57837209 L44.349013,14.4148837 C43.4209841,13.9997674 42.65423,13.7104651 42.1235615,13.5213953 L42.1235615,11.73 L39.5732301,11.73 L39.5732301,23.5404651 L37.3489439,23.5404651 L37.3489439,15.9311628 C36.5141374,18.417907 35.2999158,20.2139535 34.6592449,21.0488372 L33.5172707,19.6004651 C34.9852902,17.7483721 36.6579329,14.9886047 36.9851435,11.73 L33.9181269,11.73 L33.9181269,10.342093 L37.3489439,10.342093 L37.3489439,6.56767442 L39.5732301,6.56767442 L39.5732301,10.342093 L42.1235615,10.342093 L42.1235615,7.18813953 L51.4544234,7.18813953 L49.0057043,12.177907 L52.8490304,12.177907 L52.6677128,12.9662791 C52.6301908,13.1272093 52.0118933,15.7281395 50.020197,18.8516279 C51.6646399,20.115814 53.3186381,21.6625581 54.7717421,23.5404651" id="Fill-15" fill="#4D4948"></path>
                <path d="M95.3823276,16.8201163 L103.238178,16.8201163 L105.758212,14.085 L98.2367971,14.085 L98.2367971,12.3152326 L110.061824,12.3152326 L105.701114,16.8201163 L112.634063,16.8201163 L112.634063,18.5896512 L105.620476,18.5896512 L105.620476,23.3156977 L101.669245,23.3156977 L100.863105,21.6466279 L103.238178,21.6466279 L103.238178,18.5896512 L95.3823276,18.5896512 L95.3823276,16.8201163 Z M104.774017,6.48290698 L105.539839,8.29290698 L108.200173,8.29290698 L109.490138,6.68430233 L111.827922,6.68430233 L110.537957,8.29290698 L112.835656,8.29290698 L112.835656,11.7117442 L110.820188,11.7117442 L110.820188,10.062907 L97.1962022,10.062907 L97.1962022,11.7117442 L95.1807342,11.7117442 L95.1807342,8.29290698 L97.5588373,8.29290698 L96.712378,6.68430233 L98.8891208,6.68430233 L99.8159844,8.29290698 L103.363329,8.29290698 L102.516637,6.48290698 L104.774017,6.48290698 Z" id="Fill-17" fill="#4D4948"></path>
            </g>
        </g>
    </g>
</svg>
